<?xml version="1.0" standalone="no"?>
<!DOCTYPE svg PUBLIC "-//W3C//DTD SVG 20010904//EN"
 "http://www.w3.org/TR/2001/REC-SVG-20010904/DTD/svg10.dtd">
<svg version="1.0" xmlns="http://www.w3.org/2000/svg"
 width="658.000000pt" height="658.000000pt" viewBox="0 0 658.000000 658.000000"
 preserveAspectRatio="xMidYMid meet">
<metadata>
Created by potrace 1.11, written by Peter Selinger 2001-2013
</metadata>
<g transform="translate(0.000000,658.000000) scale(0.100000,-0.100000)"
fill="#000000" stroke="none">
<path d="M3144 6555 c-559 -165 -2233 -1114 -2617 -1484 -116 -111 -153 -221
-186 -551 -79 -774 -41 -2268 70 -2715 28 -114 50 -153 132 -233 286 -282
1286 -914 2057 -1301 502 -251 634 -290 826 -241 218 56 832 368 1448 737 702
420 1186 774 1256 917 91 189 150 891 150 1786 0 606 -31 1121 -80 1328 -24
100 -32 117 -79 163 -20 20 -63 64 -96 99 -333 346 -2068 1332 -2630 1495
-107 31 -147 31 -251 0z m-131 -1098 c15 -11 -5 -25 -162 -115 -158 -91 -182
-102 -201 -92 -12 6 -19 14 -17 17 11 11 343 201 353 202 5 1 18 -5 27 -12z
m3110 -634 c25 -89 45 -228 64 -453 26 -299 26 -1512 0 -1868 -20 -282 -49
-528 -77 -654 -34 -155 -71 -203 -294 -376 -584 -455 -1973 -1250 -2405 -1376
l-53 -16 5 28 c2 15 11 59 20 97 20 89 43 299 59 535 17 246 17 1300 0 1595
-23 395 -53 668 -94 842 -25 109 -23 115 61 139 543 157 2284 1149 2621 1495
36 37 68 68 71 68 4 1 14 -25 22 -56z m-4486 -1650 c215 -124 419 -247 451
-274 69 -55 148 -157 191 -245 47 -94 61 -170 61 -337 0 -161 -10 -205 -55
-242 l-24 -20 37 -74 37 -75 0 -266 c0 -234 -2 -269 -17 -292 -39 -59 -128
-38 -208 48 -73 79 -74 87 -80 378 l-5 259 -248 144 c-137 78 -250 143 -252
143 -2 0 -5 -111 -7 -246 l-3 -246 -25 -20 c-56 -46 -170 6 -238 109 l-37 56
-3 720 c-2 685 -2 719 15 713 10 -4 194 -109 410 -233z"/>
<path d="M5265 3447 c-123 -67 -612 -352 -666 -388 -116 -78 -217 -214 -265
-357 -24 -70 -25 -83 -22 -266 2 -145 7 -198 18 -220 38 -73 126 -94 227 -54
33 14 171 88 305 166 135 78 250 142 256 142 9 0 12 -44 12 -155 l0 -155 -32
-20 c-18 -11 -172 -100 -342 -198 -169 -97 -328 -195 -353 -217 -78 -68 -116
-187 -77 -243 28 -41 67 -30 235 67 625 360 618 355 698 456 60 74 105 153
131 230 17 50 20 84 20 249 0 162 -3 196 -18 226 -26 53 -74 80 -142 80 -70 0
-131 -29 -430 -203 -118 -69 -218 -122 -223 -118 -4 4 -6 76 -5 160 l3 153
350 202 c200 115 367 218 388 240 50 49 77 108 77 173 0 42 -4 55 -22 67 -32
23 -56 20 -123 -17z"/>
<path d="M1522 2781 l3 -152 249 -145 c137 -79 250 -144 252 -144 2 0 4 66 4
148 l0 148 -232 134 c-128 73 -243 140 -256 148 l-23 15 3 -152z"/>
</g>
</svg>
